Simulation
nRows=23
nColumns=15
endheader
time  TH_x TH_y TH_z SC_y  SC_z  SC_x  AC_y  AC_z  AC_x  GH_y  GH_z  GH_yy  EL_x  PS_y
0.0  0.000000  0.000000  0.000000  -21.457279845726973  6.429958688027372  -8.94869311407844  55.75527589104181  8.44512756681089  9.965461826767164  -158.17453171471738  2.7484746443581307  -164.49345026173566  20.969746276282258  120.000000
0.04016479400749064  0.000000  0.000000  0.000000  -21.467009197856168  6.432705922975914  -8.95067396808242  55.72185442483327  8.48919369640044  9.946437145520383  -156.61319252311026  2.612494869469667  -166.1606652636567  20.388742721730974  120.000000
0.08032958801498127  0.000000  0.000000  0.000000  -21.494587835540393  6.4422607953117454  -8.951554030369175  55.615000741476095  8.621525798334387  9.887228126323274  -150.63523191940828  2.2154836214373246  -172.46484325316854  19.84090448129556  120.000000
0.12049438202247191  0.000000  0.000000  0.000000  -21.544240729044997  6.4640124557385965  -8.95097377757428  55.427610900003025  8.832086665704304  9.78707255885356  -134.46437306791034  1.6448496203727265  170.80367919637422  19.30322874817781  120.000000
0.16065917602996255  0.000000  0.000000  0.000000  -21.62724717374998  6.498442632151386  -8.958690820720248  55.15782802872167  9.100398415895528  9.648109474250106  -93.60055348994187  1.3087745636293535  129.1406592649455  18.758748714159765  120.000000
0.20082397003745317  0.000000  0.000000  0.000000  -21.760548259531667  6.541790643568358  -8.98422602747972  54.807336749222195  9.406229324645913  9.474280128159178  -49.97736964372915  1.9473411322046503  84.48419890003865  18.19474651130385  120.000000
0.24098876404494382  0.000000  0.000000  0.000000  -21.96557482947805  6.5916544444521685  -9.032013067167394  54.38360379025729  9.731863331567434  9.27340265716531  -31.535938573454768  3.312839073066324  64.78970509526604  17.60658473065443  120.000000
0.28115355805243447  0.000000  0.000000  0.000000  -22.26103384173325  6.646367441378199  -9.097280407498173  53.89896190200422  10.065686838694585  9.053396717005205  -23.790703831363242  5.032958271203171  55.594069495545725  16.99632556124785  120.000000
0.3213183520599251  0.000000  0.000000  0.000000  -22.660974873961873  6.708660495385262  -9.168372336444039  53.37268121218995  10.404175667253755  8.820611383696189  -19.888595031388707  6.991560131489489  50.07077295476871  16.371254765877733  120.000000
0.3614831460674157  0.000000  0.000000  0.000000  -23.16922123351522  6.782381251101076  -9.229075225765888  52.82472211094133  10.749607770251233  8.581292096173929  -17.67094301025321  9.140742864909953  46.091360175989244  15.74129333190135  120.000000
0.40164794007490634  0.000000  0.000000  0.000000  -23.782009598963196  6.870971879095536  -9.260342805016577  52.27313716575368  11.105272516037774  8.34030730377793  -16.332519070643052  11.449574809452209  42.88216057658647  15.116429923169258  120.000000
0.441812734082397  0.000000  0.000000  0.000000  -24.49137164108912  6.978480109164078  -9.242488036873041  51.7340883145071  11.472415345908535  8.100418721080153  -15.52079021404449  13.892129327595116  40.12317003845952  14.50642712447089  120.000000
0.48197752808988764  0.000000  0.000000  0.000000  -25.28537947187195  7.1082085042051375  -9.157885398803208  51.22061956410143  11.849839765243374  7.862997877682961  -15.058244057492159  16.443443254819098  37.6688151117633  13.919127529376414  120.000000
0.5221423220973783  0.000000  0.000000  0.000000  -26.15043096562282  7.261604286562567  -8.993342886767103  50.74381018063561  12.234798547623688  7.630263756394653  -14.837031553339742  19.079011281218634  35.44237108509417  13.3604592243915  120.000000
0.5623071161048689  0.000000  0.000000  0.000000  -27.07109706866148  7.438270594205804  -8.739678753804258  50.31340474129061  12.62193884340467  7.405283450521712  -14.780093335880386  21.774182984620865  33.395816323809996  12.83434737411053  120.000000
0.6024719101123596  0.000000  0.000000  0.000000  -28.031828725180535  7.636072856010478  -8.390862493964613  49.93857727838398  13.002734939878259  7.190333509550162  -14.826148772745592  24.504898219780486  31.494115638727788  12.34260375509157  120.000000
0.6426367041198502  0.000000  0.000000  0.000000  -29.01823690725839  7.852228223226785  -7.944199659591648  49.626931667094176  13.366552409178475  6.9866609572752685  -14.925527193306243  27.248004013414405  29.709388007003838  11.88455034736436  120.000000
0.6828014981273408  0.000000  0.000000  0.000000  -30.01811681950761  8.083751793984414  -7.4001318028154035  49.38359184451713  13.702530594185019  6.794508762350452  -15.03811750714757  29.982280405427428  28.018047567016293  11.45681092693227  120.000000
0.7229662921348314  0.000000  0.000000  0.000000  -31.02125717900133  8.32829122320145  -6.762016754749645  49.211498396085425  14.001559024534933  6.613817458642529  -15.13043145222752  32.6885806673187  26.39726283607531  11.053572507125011  120.000000
0.7631310861423221  0.000000  0.000000  0.000000  -32.01810938296568  8.583790502138868  -6.035457100150086  49.111581662178516  14.257660970067265  6.445310545009345  -15.17365903132875  35.350358574715564  24.823704921828984  10.667792077482677  120.000000
0.8032958801498127  0.000000  0.000000  0.000000  -32.99910749600247  8.848127621320872  -5.227609791979976  49.08267437029596  14.468539674550557  6.290699870767874  -15.145902544518163  37.953990542923904  23.276280261162416  10.29209648256543  120.000000
0.8434606741573034  0.000000  0.000000  0.000000  -33.95510458847879  9.119645010763186  -4.34656826447547  49.12052291115367  14.634504990985281  6.151700695819056  -15.034959050939573  40.488602180605405  21.739815500545706  9.919308539090606  120.000000
0.883625468164794  0.000000  0.000000  0.000000  -34.8780217629568  9.397154439786586  -3.4019143833523007  49.21668223594363  14.757805941376018  6.029370599248163  -14.83934941432398  42.94550640645838  20.207005335618355  9.544087994867871  120.000000
